<svg xmlns="http://www.w3.org/2000/svg" viewBox="0 0 100 100" fill="none">
  <!-- Brand Colors: Blue #2D6CDF, Green #00C853, Dark #121212 -->
  <circle cx="50" cy="50" r="45" fill="#121212" />
  
  <!-- Spider Web / Network Connections -->
  <path d="M50 20 L75 35 L75 65 L50 80 L25 65 L25 35 Z" stroke="#2D6CDF" stroke-width="2" fill="none" opacity="0.5"/>
  <path d="M50 20 L50 50 M75 35 L50 50 M75 65 L50 50 M50 80 L50 50 M25 65 L50 50 M25 35 L50 50" stroke="#2D6CDF" stroke-width="1.5" opacity="0.5"/>
  
  <!-- Code Brackets forming the spider body -->
  <path d="M35 45 L28 50 L35 55" stroke="#00C853" stroke-width="4" stroke-linecap="round" stroke-linejoin="round"/>
  <path d="M65 45 L72 50 L65 55" stroke="#00C853" stroke-width="4" stroke-linecap="round" stroke-linejoin="round"/>
  
  <!-- Central Spider Body / Search Lens -->
  <circle cx="50" cy="50" r="12" fill="#2D6CDF" />
  <circle cx="50" cy="50" r="6" fill="#121212" />
  
  <!-- Legs hints -->
  <path d="M40 38 Q 30 30 20 35" stroke="#F8F9FA" stroke-width="2" stroke-linecap="round" />
  <path d="M60 38 Q 70 30 80 35" stroke="#F8F9FA" stroke-width="2" stroke-linecap="round" />
  <path d="M40 62 Q 30 70 20 65" stroke="#F8F9FA" stroke-width="2" stroke-linecap="round" />
  <path d="M60 62 Q 70 70 80 65" stroke="#F8F9FA" stroke-width="2" stroke-linecap="round" />
</svg>